{"title":"Guru (2018) 720p UnCut HDRip x264 [Hindi + Telugu] [FOX] ","magnet":"magnet:?xt=urn:btih:3ad349dc829fb27ffce5abcaf9eb8054391b31c7&dn=+Guru+%282018%29+720p+UnCut+HDRip+x264+%5BHindi+%2B+Telugu%5D+%5BFOX%5D+&tr=udp%3A%2F%2Ftracker.leechers-paradise.org%3A6969&tr=udp%3A%2F%2Fzer0day.ch%3A1337&tr=udp%3A%2F%2Fopen.demonii.com%3A1337&tr=udp%3A%2F%2Ftracker.coppersurfer.tk%3A6969&tr=udp%3A%2F%2Fexodus.desync.com%3A6969","uploader":"rascal_69","categoryP":"video","categoryS":"movies","size":"1136739892","seeders":"1","leechers":"15","description":" Guru (2018) 720p UnCut HDRip x264 [Hindi + Telugu] [FOX] \r\n\r\nVideo\r\nID : 1\r\nFormat : AVC\r\nFormat/Info : Advanced Video Codec\r\nFormat profile : High@L3.1\r\nFormat settings : CABAC / 5 Ref Frames\r\nFormat settings, CABAC : Yes\r\nFormat settings, RefFrames : 5 frames\r\nCodec ID : V_MPEG4/ISO/AVC\r\nDuration : 1 h 48 min\r\nBit rate : 1 152 kb/s\r\nWidth : 1 280 pixels\r\nHeight : 544 pixels\r\nDisplay aspect ratio : 2.35:1\r\nFrame rate mode : Constant\r\nFrame rate : 25.000 FPS\r\nColor space : YUV\r\nChroma subsampling : 4:2:0\r\nBit depth : 8 bits\r\nScan type : Progressive\r\nBits/(Pixel*Frame) : 0.066\r\nStream size : 884 MiB (82%)\r\n\r\nAudio #1\r\nID : 2\r\nFormat : MPEG Audio\r\nFormat version : Version 1\r\nFormat profile : Layer 3\r\nFormat settings : Joint stereo\r\nCodec ID : A_MPEG/L3\r\nCodec ID/Hint : MP3\r\nDuration : 1 h 48 min\r\nBit rate mode : Constant\r\nBit rate : 128 kb/s\r\nChannel(s) : 2 channels\r\nSampling rate : 48.0 kHz\r\nFrame rate : 41.667 FPS (1152 SPF)\r\nCompression mode : Lossy\r\nStream size : 99.2 MiB (9%)\r\nLanguage : Hindi\r\n\r\n\r\nAudio #2\r\nID : 3\r\nFormat : AAC LC\r\nFormat/Info : Advanced Audio Codec Low Complexity\r\nCodec ID : A_AAC-2\r\nDuration : 1 h 48 min\r\nBit rate : 128 kb/s\r\nChannel(s) : 2 channels\r\nChannel layout : L R\r\nSampling rate : 48.0 kHz\r\nFrame rate : 46.875 FPS (1024 SPF)\r\nCompression mode : Lossy\r\nStream size : 99.1 MiB (9%)\r\nLanguage : Telugu \r\n\r\nCOVER  <a href=\" http://imgbid.com/image/QgkA\" rel=\"nofollow\" target=\"_NEW\"> http://imgbid.com/image/QgkA</a>\r\n\r\nSCREENS: <a href=\"\nhttp://imgbid.com/image/Quxq\" rel=\"nofollow\" target=\"_NEW\">\nhttp://imgbid.com/image/Quxq</a>\r\n <a href=\"\nhttp://imgbid.com/image/Q34F\" rel=\"nofollow\" target=\"_NEW\">\nhttp://imgbid.com/image/Q34F</a>\r\n <a href=\"\nhttp://imgbid.com/image/QTib\" rel=\"nofollow\" target=\"_NEW\">\nhttp://imgbid.com/image/QTib</a>","last_updated":"2018-10-13T12:06:44.073Z","parsed":{"xt":"urn:btih:3ad349dc829fb27ffce5abcaf9eb8054391b31c7","dn":" Guru (2018) 720p UnCut HDRip x264 [Hindi   Telugu] [FOX] ","tr":["udp://exodus.desync.com:6969","udp://open.demonii.com:1337","udp://tracker.coppersurfer.tk:6969","udp://tracker.leechers-paradise.org:6969","udp://zer0day.ch:1337"],"infoHash":"3ad349dc829fb27ffce5abcaf9eb8054391b31c7","infoHashBuffer":{"type":"Buffer","data":[58,211,73,220,130,159,178,127,252,229,171,202,249,235,128,84,57,27,49,199]},"name":" Guru (2018) 720p UnCut HDRip x264 [Hindi   Telugu] [FOX] ","announce":["udp://exodus.desync.com:6969","udp://open.demonii.com:1337","udp://tracker.coppersurfer.tk:6969","udp://tracker.leechers-paradise.org:6969","udp://zer0day.ch:1337"],"urlList":[]}}